name rise30.2954peak35.7071fall66.7804.mot
datacolumns 19
datarows 11
range 20.65325600000000 20.66992700000000
endheader
time	ground_force1_vx	ground_force1_vy	ground_force1_vz	ground_force1_px	ground_force1_py	ground_force1_pz	ground_force2_vx	ground_force2_vy	ground_force2_vz	ground_force2_px	ground_force2_py	ground_force2_pz	ground_torque1_x	ground_torque1_y	ground_torque1_z	ground_torque2_x	ground_torque2_y	ground_torque2_z	
20.65325600000000	-1.22342100000000	40.04392100000000	-7.15033200000000	0.28607300000000	0.00000000000000	0.09960700000000	-32.91967600000000	808.33646299999998	-59.32905200000000	0.09661300000000	0.00000000000000	-0.09313900000000	0.00000000000000	-4.37221400000000	0.00000000000000	0.00000000000000	-17.64083000000000	0.00000000000000	
20.65492400000000	-1.33096700000000	46.77469300000000	-8.03330300000000	0.28970300000000	0.00000000000000	0.10039500000000	-33.39523700000000	805.90698699999996	-58.98535400000000	0.09606600000000	0.00000000000000	-0.09299300000000	0.00000000000000	-4.94584800000000	0.00000000000000	0.00000000000000	-17.56230500000000	0.00000000000000	
20.65658800000000	-1.40586300000000	53.55172600000000	-8.83248000000000	0.29286500000000	0.00000000000000	0.10114200000000	-33.89144000000000	803.35172799999998	-58.62041700000000	0.09551700000000	0.00000000000000	-0.09284400000000	0.00000000000000	-5.47300500000000	0.00000000000000	0.00000000000000	-17.48682400000000	0.00000000000000	
20.65826200000000	-1.44198700000000	60.28590000000000	-9.52868700000000	0.29562600000000	0.00000000000000	0.10185400000000	-34.40861700000000	800.66861500000005	-58.23426700000000	0.09496500000000	0.00000000000000	-0.09269200000000	0.00000000000000	-5.94129600000000	0.00000000000000	0.00000000000000	-17.41455200000000	0.00000000000000	
20.65993000000000	-1.43443300000000	66.91135400000000	-10.10914700000000	0.29804200000000	0.00000000000000	0.10253500000000	-34.94698000000000	797.85548200000005	-57.82694200000000	0.09440800000000	0.00000000000000	-0.09253700000000	0.00000000000000	-6.34244700000000	0.00000000000000	0.00000000000000	-17.34563100000000	0.00000000000000	
20.66159600000000	-1.37958300000000	73.38737200000000	-10.56756300000000	0.30016100000000	0.00000000000000	0.10318700000000	-35.50662500000000	794.91006500000003	-57.39849700000000	0.09384700000000	0.00000000000000	-0.09237900000000	0.00000000000000	-6.67239000000000	0.00000000000000	0.00000000000000	-17.28017900000000	0.00000000000000	
20.66326100000000	-1.27507700000000	79.69788600000000	-10.90366100000000	0.30202100000000	0.00000000000000	0.10381400000000	-36.08752000000000	791.83001200000001	-56.94899800000000	0.09328100000000	0.00000000000000	-0.09221800000000	0.00000000000000	-6.93098500000000	0.00000000000000	0.00000000000000	-17.21828800000000	0.00000000000000	
20.66492200000000	-1.11968800000000	85.84902300000000	-11.12231200000000	0.30365600000000	0.00000000000000	0.10441800000000	-36.68950800000000	788.61288600000000	-56.47853000000000	0.09270800000000	0.00000000000000	-0.09205400000000	0.00000000000000	-7.12146700000000	0.00000000000000	0.00000000000000	-17.16002600000000	0.00000000000000	
20.66659400000000	-0.91313900000000	91.86525100000000	-11.23238300000000	0.30509400000000	0.00000000000000	0.10500000000000	-37.31229700000000	785.25617199999999	-55.98719300000000	0.09213000000000	0.00000000000000	-0.09188700000000	0.00000000000000	-7.24971400000000	0.00000000000000	0.00000000000000	-17.10543100000000	0.00000000000000	
20.66825500000000	-0.65589000000000	97.78467000000001	-11.24546900000000	0.30636100000000	0.00000000000000	0.10556200000000	-37.95546200000000	781.75728600000002	-55.47510500000000	0.09154500000000	0.00000000000000	-0.09171800000000	0.00000000000000	-7.32341400000000	0.00000000000000	0.00000000000000	-17.05451600000000	0.00000000000000	
20.66992700000000	-0.34890800000000	103.65400699999999	-11.17461100000000	0.30747800000000	0.00000000000000	0.10610500000000	-38.61844300000000	778.11357999999996	-54.94240000000000	0.09095300000000	0.00000000000000	-0.09154500000000	0.00000000000000	-7.35122800000000	0.00000000000000	0.00000000000000	-17.00726500000000	0.00000000000000	
